Coordinates
version=1
nRows=11
nColumns=36
inDegrees=yes

Units are S.I. units (second, meters, Newtons, ...)
If the header above contains a line with 'inDegrees', this indicates whether rotational values are in degrees (yes) or radians (no).

endheader
time	pelvis_tilt	pelvis_list	pelvis_rotation	pelvis_tx	pelvis_ty	pelvis_tz	hip_flexion_r	hip_adduction_r	hip_rotation_r	knee_angle_r	knee_angle_r_beta	ankle_angle_r	subtalar_angle_r	mtp_angle_r	hip_flexion_l	hip_adduction_l	hip_rotation_l	knee_angle_l	knee_angle_l_beta	ankle_angle_l	subtalar_angle_l	mtp_angle_l	lumbar_extension	lumbar_bending	lumbar_rotation	arm_flex_r	arm_add_r	arm_rot_r	elbow_flex_r	pro_sup_r	arm_flex_l	arm_add_l	arm_rot_l	elbow_flex_l	pro_sup_l
      3.93333330	     -5.80973695	      4.78587896	     -2.31921039	     -0.00937314	      0.65557630	      0.05336582	     59.85936146	     10.77033808	      6.24353034	     91.46113377	      1.59629792	     34.75923415	    -30.46345877	     -7.49999987	     68.20625293	     -5.33736377	      6.11832594	     15.45776202	      0.26978884	    -15.86906555	    -10.87786620	     -7.49999987	    -14.72143490	     -3.55858195	      0.53732518	     73.62418078	    -11.37351291	     47.49145054	     49.96347280	     89.69091711	     64.01559767	    -12.12183381	     27.52442671	     52.63738244	     87.38520437
      3.95000000	     -5.62466381	      4.62784977	     -2.57180338	     -0.00966744	      0.65375827	      0.05289547	     59.52309084	     11.08624691	      6.16613126	     91.38918060	      1.59504210	     35.15671618	    -30.12853967	     -7.49999987	     67.88698220	     -5.61725068	      6.02023461	     14.89469757	      0.25996151	    -16.01199112	    -10.62417512	     -7.49999987	    -14.94599363	     -3.40102081	      0.85016118	     73.85625793	    -11.43607919	     47.43595279	     49.72801881	     93.02861360	     64.13180737	    -11.85612283	     27.16105651	     52.42832659	     90.80127132
      3.96666670	     -5.69735283	      4.69826522	     -2.64357432	     -0.00871536	      0.65281522	      0.05262808	     59.66971070	     11.08755759	      6.20531769	     91.68178929	      1.60014909	     34.91270851	    -30.35975204	     -7.49999987	     67.89346531	     -5.61698995	      6.01431517	     14.75867136	      0.25758741	    -16.05079951	    -10.66592837	     -7.49999987	    -14.92385415	     -3.43646041	      0.92999066	     73.86390161	    -11.49300302	     47.33484832	     49.98764952	     92.00850063	     64.09162162	    -11.79989107	     27.07884047	     52.69054591	     89.78222019
      3.98333330	     -5.48297718	      4.65005225	     -2.90160948	     -0.00984350	      0.65212674	      0.05178353	     59.81951273	     11.19868089	      6.21063807	     92.00284996	      1.60575265	     34.78698751	    -30.40243051	     -7.49999987	     67.74240574	     -5.78518214	      6.07317312	     14.69977506	      0.25655947	    -15.92629874	    -10.91083541	     -7.49999987	    -15.03689701	     -3.28830893	      1.16590304	     74.36116922	    -11.45943772	     48.44747904	     49.48484192	     90.91765065	     64.21536340	    -11.81591846	     27.52935529	     52.42314819	     88.73191753
      4.00000000	     -5.41300480	      4.72024254	     -3.18205422	     -0.01161702	      0.65088004	      0.05132946	     60.15792584	     11.24389210	      6.38046183	     92.21971888	      1.60953773	     34.76337627	    -30.46220579	     -7.49999987	     67.90130179	     -5.90004885	      5.94701233	     14.79492838	      0.25822021	    -16.15346471	    -11.38293431	     -7.49999987	    -15.02907307	     -3.32777391	      1.23447950	     74.44481393	    -11.33297247	     48.34159332	     49.77092205	     89.68418600	     64.01534674	    -11.90666084	     27.23258849	     52.86341328	     87.44847671
      4.01666670	     -5.26810108	      4.61123341	     -3.29318324	     -0.01311555	      0.65008415	      0.05332338	     59.93615347	     11.48291001	      6.24533753	     92.22497730	      1.60962951	     35.35212477	    -30.06703587	     -7.49999987	     67.91564451	     -6.11130401	      6.05299648	     15.05439802	      0.26274881	    -16.22717791	    -11.58497878	     -7.49999987	    -15.14631440	     -3.08155313	      1.12385490	     75.04470702	    -10.80156438	     48.92640841	     48.90284536	     92.71730070	     63.90316032	    -12.11987063	     26.61397703	     53.05356852	     90.78768066
      4.03333330	     -5.27553172	      4.67429931	     -3.22576418	     -0.01237748	      0.64927198	      0.05307389	     59.93156307	     11.42046702	      5.96690044	     92.60467762	      1.61625653	     35.36007810	    -29.70920062	     -7.49999987	     68.27806118	     -6.07025553	      6.13758695	     15.88310573	      0.27721249	    -15.89403989	    -11.41556903	     -7.49999987	    -15.20409323	     -3.12630782	      0.99624016	     75.17087433	    -10.80959216	     48.76949194	     49.27345336	     92.00286415	     64.03608155	    -12.17488083	     26.49181416	     53.37575273	     90.09156240
      4.05000000	     -5.32649582	      4.67191966	     -3.36998369	     -0.01340229	      0.65000547	      0.05344353	     60.11779355	     11.52741378	      6.10093782	     92.52554225	      1.61487535	     35.05294267	    -30.11125561	     -7.49999987	     68.32806608	     -6.24635334	      6.12227147	     16.05473412	      0.28020797	    -15.91994940	    -12.10431568	     -7.49999987	    -15.09624427	     -3.11916417	      1.04409890	     75.23661391	    -10.72044732	     48.98645595	     49.34690829	     91.23069788	     63.94484660	    -12.32624584	     26.59253528	     53.49240539	     89.27324391
      4.06666670	     -5.40709114	      4.61637188	     -3.39215553	     -0.01123689	      0.64971405	      0.05320300	     60.13587642	     11.55122021	      6.01105167	     92.46004605	      1.61373223	     34.87244305	    -30.17911829	     -7.49999987	     68.25799357	     -6.30932868	      6.19049460	     15.71515694	      0.27428123	    -16.21133103	    -11.99336237	     -7.49999987	    -14.95513932	     -3.07013800	      1.02226243	     75.32255306	    -10.69020872	     49.20296963	     49.29234570	     90.94435536	     63.82797351	    -12.43155856	     26.66418291	     53.66516255	     88.89839359
      4.08333330	     -5.30359068	      4.60912092	     -3.46713816	     -0.01171240	      0.64918877	      0.05381351	     59.98513151	     11.63430039	      5.83222701	     92.73917886	      1.61860402	     33.97583055	    -30.14144941	     -7.49999987	     68.18037051	     -6.39887753	      6.35688544	     15.88963048	      0.27732637	    -15.78920142	    -11.81255428	     -7.49999987	    -15.05848709	     -2.97598639	      1.04611561	     75.71788851	    -10.61002908	     49.87620963	     49.06884690	     90.59825896	     63.76246413	    -12.62205297	     26.80473101	     53.85344684	     88.45349699
      4.10000000	     -5.41174562	      4.64454821	     -3.48411540	     -0.00878688	      0.64981047	      0.05202171	     59.78204348	     11.48017166	      5.80332273	     92.78449295	      1.61939490	     33.73019253	    -29.77866622	     -7.49999987	     68.09727586	     -6.38629430	      6.29637714	     15.62840176	      0.27276707	    -15.67928680	    -11.65623439	     -7.49999987	    -14.88862465	     -2.97458976	      0.89937996	     75.55411635	    -10.63343084	     49.87413353	     49.52981201	     89.81923826	     63.38178528	    -12.76890575	     26.62488979	     54.26017909	     87.64722313
